<svg aria-hidden="true" focusable="false" data-prefix="fas" data-icon="film" class="svg-inline--fa fa-film fa-w-16" role="img"
	 xmlns="http://www.w3.org/2000/svg" viewBox="0 0 512 512">
	<rect
		height="512"
		width="512"
		y="0"
		x="0"
		fill="#ffffff"/>
	<path
		style="fill:#007bff;stroke-width:0.79798359"
		id="path4"
		d="m 441.13219,102.78715 h -6.38387 v 15.95967 c 0,5.2667 -4.30911,9.57581 -9.5758,9.57581 h -31.91934 c -5.2667,0 -9.57581,-4.30911 -9.57581,-9.57581 V 102.78715 H 128.32263 v 15.95967 c 0,5.2667 -4.30911,9.57581 -9.57581,9.57581 H 86.82748 c -5.266691,0 -9.575803,-4.30911 -9.575803,-9.57581 v -15.95967 h -6.383868 c -10.613182,0 -19.151606,8.53843 -19.151606,19.15161 v 268.12248 c 0,10.61318 8.538424,19.15161 19.151606,19.15161 h 6.383868 v -15.95967 c 0,-5.2667 4.309112,-9.57581 9.575803,-9.57581 h 31.91934 c 5.2667,0 9.57581,4.30911 9.57581,9.57581 v 15.95967 h 255.35474 v -15.95967 c 0,-5.2667 4.30911,-9.57581 9.57581,-9.57581 h 31.91934 c 5.26669,0 9.5758,4.30911 9.5758,9.57581 v 15.95967 h 6.38387 c 10.61318,0 19.15161,-8.53843 19.15161,-19.15161 V 121.93876 c 0,-10.61318 -8.53843,-19.15161 -19.15161,-19.15161 z M 128.32263,348.5661 c 0,5.26669 -4.30911,9.5758 -9.57581,9.5758 H 86.82748 c -5.266691,0 -9.575803,-4.30911 -9.575803,-9.5758 v -31.91935 c 0,-5.26669 4.309112,-9.5758 9.575803,-9.5758 h 31.91934 c 5.2667,0 9.57581,4.30911 9.57581,9.5758 z m 0,-76.60643 c 0,5.26669 -4.30911,9.5758 -9.57581,9.5758 H 86.82748 c -5.266691,0 -9.575803,-4.30911 -9.575803,-9.5758 v -31.91934 c 0,-5.26669 4.309112,-9.5758 9.575803,-9.5758 h 31.91934 c 5.2667,0 9.57581,4.30911 9.57581,9.5758 z m 0,-76.60642 c 0,5.26669 -4.30911,9.5758 -9.57581,9.5758 H 86.82748 c -5.266691,0 -9.575803,-4.30911 -9.575803,-9.5758 V 163.4339 c 0,-5.26669 4.309112,-9.5758 9.575803,-9.5758 h 31.91934 c 5.2667,0 9.57581,4.30911 9.57581,9.5758 z m 217.05153,165.98058 c 0,5.26669 -4.30911,9.57581 -9.5758,9.57581 H 176.20164 c -5.26669,0 -9.5758,-4.30912 -9.5758,-9.57581 v -76.60642 c 0,-5.26669 4.30911,-9.5758 9.5758,-9.5758 h 159.59672 c 5.26669,0 9.5758,4.30911 9.5758,9.5758 z m 0,-134.06124 c 0,5.26669 -4.30911,9.5758 -9.5758,9.5758 H 176.20164 c -5.26669,0 -9.5758,-4.30911 -9.5758,-9.5758 v -76.60642 c 0,-5.26669 4.30911,-9.57581 9.5758,-9.57581 h 159.59672 c 5.26669,0 9.5758,4.30912 9.5758,9.57581 z m 89.37416,121.29351 c 0,5.26669 -4.30911,9.5758 -9.5758,9.5758 h -31.91934 c -5.2667,0 -9.57581,-4.30911 -9.57581,-9.5758 v -31.91935 c 0,-5.26669 4.30911,-9.5758 9.57581,-9.5758 h 31.91934 c 5.26669,0 9.5758,4.30911 9.5758,9.5758 z m 0,-76.60643 c 0,5.26669 -4.30911,9.5758 -9.5758,9.5758 h -31.91934 c -5.2667,0 -9.57581,-4.30911 -9.57581,-9.5758 v -31.91934 c 0,-5.26669 4.30911,-9.5758 9.57581,-9.5758 h 31.91934 c 5.26669,0 9.5758,4.30911 9.5758,9.5758 z m 0,-76.60642 c 0,5.26669 -4.30911,9.5758 -9.5758,9.5758 h -31.91934 c -5.2667,0 -9.57581,-4.30911 -9.57581,-9.5758 V 163.4339 c 0,-5.26669 4.30911,-9.5758 9.57581,-9.5758 h 31.91934 c 5.26669,0 9.5758,4.30911 9.5758,9.5758 z"/>
</svg>
